<svg width="46" height="24" viewBox="0 0 46 24" fill="none" xmlns="http://www.w3.org/2000/svg">
<path d="M9.55 1.6C9.588 1.53667 9.60067 1.49867 9.588 1.486C9.588 1.46067 9.54367 1.448 9.455 1.448C7.20033 1.448 5.66133 1.486 4.838 1.562C4.01467 1.62533 3.43833 1.79 3.109 2.056C2.77967 2.322 2.482 2.82233 2.216 3.557C2.216 3.58233 2.19067 3.595 2.14 3.595C2.102 3.595 2.064 3.58867 2.026 3.576C1.988 3.55067 1.97533 3.53167 1.988 3.519L2.748 0.554999C2.748 0.542333 2.77333 0.536 2.824 0.536C2.95067 0.536 3.00133 0.554999 2.976 0.592999C2.96333 0.630999 2.957 0.681666 2.957 0.744999C2.957 0.897 3.02667 0.998333 3.166 1.049C3.318 1.09967 3.61567 1.125 4.059 1.125H10.994C11.0573 1.125 11.1017 1.15667 11.127 1.22C11.165 1.28333 11.165 1.334 11.127 1.372L3.717 12.487L3.66 12.601C3.66 12.6263 3.71067 12.639 3.812 12.639H8.657C9.50567 12.639 10.1517 12.4617 10.595 12.107C11.0383 11.7523 11.3297 11.195 11.469 10.435C11.4817 10.4097 11.5197 10.397 11.583 10.397C11.6463 10.397 11.678 10.4097 11.678 10.435L11.412 12.848C11.412 12.886 11.393 12.9303 11.355 12.981C11.3297 13.019 11.2917 13.038 11.241 13.038C9.35367 13.0127 6.32633 13 2.159 13C2.09567 13 2.05133 12.9747 2.026 12.924C2.00067 12.8607 2.007 12.8037 2.045 12.753L9.55 1.6ZM21.3248 10.169C21.3248 10.1437 21.3501 10.131 21.4008 10.131C21.4388 10.131 21.4705 10.1373 21.4958 10.15C21.5338 10.1627 21.5528 10.1817 21.5528 10.207C21.4388 11.005 21.3818 11.841 21.3818 12.715C21.3818 12.8163 21.3565 12.8923 21.3058 12.943C21.2678 12.981 21.1918 13 21.0778 13H13.1168C13.0915 13 13.0788 12.962 13.0788 12.886C13.0788 12.81 13.0915 12.772 13.1168 12.772C13.5981 12.772 13.9465 12.7403 14.1618 12.677C14.3898 12.6137 14.5418 12.4933 14.6178 12.316C14.7065 12.126 14.7508 11.841 14.7508 11.461V2.664C14.7508 2.284 14.7065 2.00533 14.6178 1.828C14.5418 1.65067 14.3898 1.53033 14.1618 1.467C13.9465 1.391 13.5981 1.353 13.1168 1.353C13.0915 1.353 13.0788 1.315 13.0788 1.239C13.0788 1.163 13.0915 1.125 13.1168 1.125H20.7548C20.8688 1.125 20.9258 1.182 20.9258 1.296L20.9638 3.633C20.9638 3.671 20.9321 3.69633 20.8688 3.709C20.8055 3.709 20.7675 3.69 20.7548 3.652C20.7168 2.98067 20.5141 2.46133 20.1468 2.094C19.7795 1.714 19.2918 1.524 18.6838 1.524H17.5248C17.0815 1.524 16.7521 1.562 16.5368 1.638C16.3341 1.70133 16.1885 1.82167 16.0998 1.999C16.0238 2.16367 15.9858 2.417 15.9858 2.759V6.616H18.3038C18.9118 6.616 19.3425 6.51467 19.5958 6.312C19.8618 6.10933 19.9948 5.76733 19.9948 5.286C19.9948 5.26067 20.0328 5.248 20.1088 5.248C20.1848 5.248 20.2228 5.26067 20.2228 5.286L20.2038 6.825C20.2038 7.19233 20.2101 7.471 20.2228 7.661L20.2418 8.573C20.2418 8.59833 20.2038 8.611 20.1278 8.611C20.0518 8.611 20.0138 8.59833 20.0138 8.573C20.0138 8.01567 19.8745 7.61667 19.5958 7.376C19.3298 7.13533 18.8801 7.015 18.2468 7.015H15.9858V11.385C15.9858 11.7397 16.0238 11.9993 16.0998 12.164C16.1758 12.3287 16.3151 12.4427 16.5178 12.506C16.7205 12.5693 17.0371 12.601 17.4678 12.601H18.9878C19.5958 12.601 20.1025 12.3857 20.5078 11.955C20.9131 11.5243 21.1855 10.929 21.3248 10.169ZM31.5299 10.169C31.5299 10.1437 31.5552 10.131 31.6059 10.131C31.6439 10.131 31.6755 10.1373 31.7009 10.15C31.7389 10.1627 31.7579 10.1817 31.7579 10.207C31.6439 11.005 31.5869 11.841 31.5869 12.715C31.5869 12.8163 31.5615 12.8923 31.5109 12.943C31.4729 12.981 31.3969 13 31.2829 13H23.3219C23.2965 13 23.2839 12.962 23.2839 12.886C23.2839 12.81 23.2965 12.772 23.3219 12.772C23.8032 12.772 24.1515 12.7403 24.3669 12.677C24.5949 12.6137 24.7469 12.4933 24.8229 12.316C24.9115 12.126 24.9559 11.841 24.9559 11.461V2.664C24.9559 2.284 24.9115 2.00533 24.8229 1.828C24.7469 1.65067 24.5949 1.53033 24.3669 1.467C24.1515 1.391 23.8032 1.353 23.3219 1.353C23.2965 1.353 23.2839 1.315 23.2839 1.239C23.2839 1.163 23.2965 1.125 23.3219 1.125H30.9599C31.0739 1.125 31.1309 1.182 31.1309 1.296L31.1689 3.633C31.1689 3.671 31.1372 3.69633 31.0739 3.709C31.0105 3.709 30.9725 3.69 30.9599 3.652C30.9219 2.98067 30.7192 2.46133 30.3519 2.094C29.9845 1.714 29.4969 1.524 28.8889 1.524H27.7299C27.2865 1.524 26.9572 1.562 26.7419 1.638C26.5392 1.70133 26.3935 1.82167 26.3049 1.999C26.2289 2.16367 26.1909 2.417 26.1909 2.759V6.616H28.5089C29.1169 6.616 29.5475 6.51467 29.8009 6.312C30.0669 6.10933 30.1999 5.76733 30.1999 5.286C30.1999 5.26067 30.2379 5.248 30.3139 5.248C30.3899 5.248 30.4279 5.26067 30.4279 5.286L30.4089 6.825C30.4089 7.19233 30.4152 7.471 30.4279 7.661L30.4469 8.573C30.4469 8.59833 30.4089 8.611 30.3329 8.611C30.2569 8.611 30.2189 8.59833 30.2189 8.573C30.2189 8.01567 30.0795 7.61667 29.8009 7.376C29.5349 7.13533 29.0852 7.015 28.4519 7.015H26.1909V11.385C26.1909 11.7397 26.2289 11.9993 26.3049 12.164C26.3809 12.3287 26.5202 12.4427 26.7229 12.506C26.9255 12.5693 27.2422 12.601 27.6729 12.601H29.1929C29.8009 12.601 30.3075 12.3857 30.7129 11.955C31.1182 11.5243 31.3905 10.929 31.5299 10.169ZM45.687 12.772C45.7123 12.772 45.725 12.81 45.725 12.886C45.725 12.962 45.7123 13 45.687 13H43.236C42.9193 13 42.324 12.4617 41.45 11.385C40.5886 10.2957 39.5373 8.782 38.296 6.844C37.992 6.93267 37.65 6.977 37.27 6.977C37.0293 6.977 36.7443 6.96433 36.415 6.939V11.461C36.415 11.8537 36.453 12.1387 36.529 12.316C36.605 12.4933 36.7506 12.6137 36.966 12.677C37.194 12.7403 37.5486 12.772 38.03 12.772C38.068 12.772 38.087 12.81 38.087 12.886C38.087 12.962 38.068 13 38.03 13C37.6373 13 37.327 12.9937 37.099 12.981L35.788 12.962L34.496 12.981C34.268 12.9937 33.945 13 33.527 13C33.5016 13 33.489 12.962 33.489 12.886C33.489 12.81 33.5016 12.772 33.527 12.772C34.0083 12.772 34.363 12.7403 34.591 12.677C34.819 12.601 34.9773 12.4743 35.066 12.297C35.1546 12.1197 35.199 11.841 35.199 11.461V2.664C35.199 2.284 35.1546 2.00533 35.066 1.828C34.99 1.65067 34.838 1.53033 34.61 1.467C34.3946 1.391 34.0463 1.353 33.565 1.353C33.527 1.353 33.508 1.315 33.508 1.239C33.508 1.163 33.527 1.125 33.565 1.125L34.496 1.144C35.028 1.16933 35.4586 1.182 35.788 1.182C36.016 1.182 36.2313 1.17567 36.434 1.163C36.6366 1.15033 36.814 1.13767 36.966 1.125C37.3713 1.087 37.7386 1.068 38.068 1.068C39.094 1.068 39.8856 1.277 40.443 1.695C41.0003 2.113 41.279 2.69567 41.279 3.443C41.279 4.051 41.1016 4.62733 40.747 5.172C40.3923 5.704 39.9236 6.12833 39.341 6.445C40.4176 8.05367 41.3233 9.314 42.058 10.226C42.7926 11.1253 43.445 11.7777 44.015 12.183C44.585 12.5757 45.1423 12.772 45.687 12.772ZM36.415 6.464C36.7316 6.51467 37.1053 6.54 37.536 6.54C38.41 6.54 39.037 6.35633 39.417 5.989C39.797 5.609 39.987 4.982 39.987 4.108C39.987 2.27133 39.2143 1.353 37.669 1.353C37.327 1.353 37.0673 1.38467 36.89 1.448C36.7253 1.49867 36.605 1.619 36.529 1.809C36.453 1.98633 36.415 2.284 36.415 2.702V6.464ZM6.592 22.904C6.61333 22.904 6.624 22.92 6.624 22.952C6.624 22.984 6.61333 23 6.592 23C6.49067 23 6.33333 22.9947 6.12 22.984C5.90667 22.9733 5.752 22.968 5.656 22.968C5.53867 22.968 5.38933 22.9733 5.208 22.984C5.03733 22.9947 4.90667 23 4.816 23C4.79467 23 4.784 22.984 4.784 22.952C4.784 22.92 4.79467 22.904 4.816 22.904C5.01333 22.904 5.15733 22.8853 5.248 22.848C5.33867 22.8107 5.384 22.7467 5.384 22.656C5.384 22.5813 5.34933 22.4667 5.28 22.312L4.36 20.352H2.848L2.16 21.984C2.08533 22.1653 2.048 22.3147 2.048 22.432C2.048 22.7467 2.30933 22.904 2.832 22.904C2.85867 22.904 2.872 22.92 2.872 22.952C2.872 22.984 2.85867 23 2.832 23C2.736 23 2.59733 22.9947 2.416 22.984C2.21333 22.9733 2.03733 22.968 1.888 22.968C1.74933 22.968 1.58933 22.9733 1.408 22.984C1.248 22.9947 1.11467 23 1.008 23C0.981333 23 0.968 22.984 0.968 22.952C0.968 22.92 0.981333 22.904 1.008 22.904C1.15733 22.904 1.28267 22.8773 1.384 22.824C1.49067 22.7653 1.58933 22.6667 1.68 22.528C1.776 22.384 1.88 22.1787 1.992 21.912L3.68 17.928C3.69067 17.912 3.70933 17.904 3.736 17.904C3.76267 17.904 3.77867 17.912 3.784 17.928L5.672 21.904C5.85333 22.2987 6.008 22.5653 6.136 22.704C6.264 22.8373 6.416 22.904 6.592 22.904ZM2.92 20.184H4.28L3.56 18.664L2.92 20.184ZM12.2492 18C12.2652 18 12.2732 18.016 12.2732 18.048C12.2732 18.08 12.2652 18.096 12.2492 18.096C12.0252 18.096 11.8625 18.1573 11.7612 18.28C11.6599 18.4027 11.6092 18.6027 11.6092 18.88V23.096C11.6092 23.1067 11.5959 23.1147 11.5692 23.12C11.5425 23.1253 11.5239 23.1227 11.5132 23.112L7.83319 18.656L7.76119 18.576V22.128C7.76119 22.4053 7.80919 22.6053 7.90519 22.728C8.00652 22.8453 8.16652 22.904 8.38519 22.904C8.40119 22.904 8.40919 22.92 8.40919 22.952C8.40919 22.984 8.40119 23 8.38519 23C8.25185 23 8.15052 22.9973 8.08119 22.992L7.68119 22.984L7.27319 22.992C7.19852 22.9973 7.08919 23 6.94519 23C6.93452 23 6.92919 22.984 6.92919 22.952C6.92919 22.92 6.93452 22.904 6.94519 22.904C7.17452 22.904 7.33719 22.8453 7.43319 22.728C7.52919 22.6053 7.57719 22.4053 7.57719 22.128V18.384C7.36919 18.192 7.15852 18.096 6.94519 18.096C6.92919 18.096 6.92119 18.08 6.92119 18.048C6.92119 18.016 6.92919 18 6.94519 18L7.24119 18.008C7.30519 18.0133 7.39319 18.016 7.50519 18.016C7.62252 18.016 7.71852 18.0133 7.79319 18.008C7.86785 18.0027 7.92652 18 7.96919 18C8.01185 18 8.04119 18.0107 8.05719 18.032C8.07852 18.048 8.11052 18.088 8.15319 18.152C8.21719 18.248 8.28119 18.336 8.34519 18.416L11.4252 22.2V18.88C11.4252 18.6027 11.3772 18.4027 11.2812 18.28C11.1905 18.1573 11.0359 18.096 10.8172 18.096C10.8065 18.096 10.8012 18.08 10.8012 18.048C10.8012 18.016 10.8065 18 10.8172 18L11.1292 18.008C11.2892 18.0187 11.4199 18.024 11.5212 18.024C11.6172 18.024 11.7505 18.0187 11.9212 18.008L12.2492 18ZM18.0217 22.904C18.043 22.904 18.0537 22.92 18.0537 22.952C18.0537 22.984 18.043 23 18.0217 23C17.9204 23 17.763 22.9947 17.5497 22.984C17.3364 22.9733 17.1817 22.968 17.0857 22.968C16.9684 22.968 16.819 22.9733 16.6377 22.984C16.467 22.9947 16.3364 23 16.2457 23C16.2244 23 16.2137 22.984 16.2137 22.952C16.2137 22.92 16.2244 22.904 16.2457 22.904C16.443 22.904 16.587 22.8853 16.6777 22.848C16.7684 22.8107 16.8137 22.7467 16.8137 22.656C16.8137 22.5813 16.779 22.4667 16.7097 22.312L15.7897 20.352H14.2777L13.5897 21.984C13.515 22.1653 13.4777 22.3147 13.4777 22.432C13.4777 22.7467 13.739 22.904 14.2617 22.904C14.2884 22.904 14.3017 22.92 14.3017 22.952C14.3017 22.984 14.2884 23 14.2617 23C14.1657 23 14.027 22.9947 13.8457 22.984C13.643 22.9733 13.467 22.968 13.3177 22.968C13.179 22.968 13.019 22.9733 12.8377 22.984C12.6777 22.9947 12.5444 23 12.4377 23C12.411 23 12.3977 22.984 12.3977 22.952C12.3977 22.92 12.411 22.904 12.4377 22.904C12.587 22.904 12.7124 22.8773 12.8137 22.824C12.9204 22.7653 13.019 22.6667 13.1097 22.528C13.2057 22.384 13.3097 22.1787 13.4217 21.912L15.1097 17.928C15.1204 17.912 15.139 17.904 15.1657 17.904C15.1924 17.904 15.2084 17.912 15.2137 17.928L17.1017 21.904C17.283 22.2987 17.4377 22.5653 17.5657 22.704C17.6937 22.8373 17.8457 22.904 18.0217 22.904ZM14.3497 20.184H15.7097L14.9897 18.664L14.3497 20.184ZM19.5269 22.32C19.5269 22.4747 19.5429 22.5867 19.5749 22.656C19.6069 22.7253 19.6655 22.7733 19.7509 22.8C19.8362 22.8213 19.9749 22.832 20.1669 22.832H21.0389C21.3429 22.832 21.5855 22.7387 21.7669 22.552C21.9482 22.3653 22.0682 22.1067 22.1269 21.776C22.1269 21.76 22.1402 21.7547 22.1669 21.76C22.1989 21.76 22.2149 21.768 22.2149 21.784C22.1669 22.2267 22.1429 22.592 22.1429 22.88C22.1429 22.9227 22.1349 22.9547 22.1189 22.976C22.1029 22.992 22.0709 23 22.0229 23H18.3269C18.3162 23 18.3109 22.984 18.3109 22.952C18.3109 22.92 18.3162 22.904 18.3269 22.904C18.5295 22.904 18.6762 22.8907 18.7669 22.864C18.8629 22.8373 18.9269 22.7867 18.9589 22.712C18.9909 22.632 19.0069 22.512 19.0069 22.352V18.648C19.0069 18.488 18.9909 18.3707 18.9589 18.296C18.9269 18.2213 18.8629 18.1707 18.7669 18.144C18.6762 18.112 18.5295 18.096 18.3269 18.096C18.3162 18.096 18.3109 18.08 18.3109 18.048C18.3109 18.016 18.3162 18 18.3269 18L18.7189 18.008C18.9429 18.0187 19.1242 18.024 19.2629 18.024C19.4122 18.024 19.5989 18.0187 19.8229 18.008L20.2069 18C20.2229 18 20.2309 18.016 20.2309 18.048C20.2309 18.08 20.2229 18.096 20.2069 18.096C20.0095 18.096 19.8629 18.112 19.7669 18.144C19.6762 18.1707 19.6122 18.224 19.5749 18.304C19.5429 18.3787 19.5269 18.496 19.5269 18.656V22.32ZM27.037 18C27.0477 18 27.053 18.016 27.053 18.048C27.053 18.08 27.0477 18.096 27.037 18.096C26.845 18.096 26.6503 18.168 26.453 18.312C26.2557 18.4507 26.0797 18.6427 25.925 18.888L24.853 20.536V22.352C24.853 22.5173 24.869 22.6373 24.901 22.712C24.933 22.7867 24.9943 22.8373 25.085 22.864C25.181 22.8907 25.3303 22.904 25.533 22.904C25.549 22.904 25.557 22.92 25.557 22.952C25.557 22.984 25.549 23 25.533 23C25.3677 23 25.2397 22.9973 25.149 22.992L24.589 22.984L24.037 22.992C23.941 22.9973 23.8103 23 23.645 23C23.629 23 23.621 22.984 23.621 22.952C23.621 22.92 23.629 22.904 23.645 22.904C23.8477 22.904 23.9943 22.8907 24.085 22.864C24.181 22.8373 24.245 22.7867 24.277 22.712C24.3143 22.632 24.333 22.512 24.333 22.352V20.664L23.005 18.72C22.8557 18.4853 22.7143 18.3227 22.581 18.232C22.4477 18.1413 22.293 18.096 22.117 18.096C22.101 18.096 22.093 18.08 22.093 18.048C22.093 18.016 22.101 18 22.117 18C22.181 18 22.277 18.0053 22.405 18.016L22.685 18.024C22.8663 18.024 23.0957 18.0187 23.373 18.008L23.805 18C23.8157 18 23.821 18.016 23.821 18.048C23.821 18.08 23.8157 18.096 23.805 18.096C23.5277 18.096 23.389 18.152 23.389 18.264C23.389 18.3227 23.4157 18.3893 23.469 18.464L24.757 20.352L25.733 18.856C25.8503 18.6693 25.909 18.512 25.909 18.384C25.909 18.192 25.765 18.096 25.477 18.096C25.4663 18.096 25.461 18.08 25.461 18.048C25.461 18.016 25.4663 18 25.477 18L25.853 18.008C26.0557 18.0187 26.2423 18.024 26.413 18.024C26.5037 18.024 26.613 18.0187 26.741 18.008L27.037 18ZM28.512 18.144C28.176 18.144 27.9227 18.2293 27.752 18.4C27.5867 18.5707 27.4667 18.8613 27.392 19.272C27.392 19.2827 27.376 19.288 27.344 19.288C27.3173 19.288 27.304 19.2827 27.304 19.272C27.3253 19.08 27.3493 18.8293 27.376 18.52C27.4027 18.2107 27.416 17.9787 27.416 17.824C27.416 17.7973 27.4293 17.784 27.456 17.784C27.488 17.784 27.504 17.7973 27.504 17.824C27.504 17.9413 27.648 18 27.936 18C28.3893 18.016 28.9253 18.024 29.544 18.024C29.8587 18.024 30.192 18.0187 30.544 18.008L31.088 18C31.28 18 31.4213 17.9867 31.512 17.96C31.608 17.9333 31.6693 17.88 31.696 17.8C31.7013 17.7787 31.7173 17.768 31.744 17.768C31.7707 17.768 31.784 17.7787 31.784 17.8C31.768 17.9547 31.752 18.1893 31.736 18.504C31.72 18.8187 31.712 19.0747 31.712 19.272C31.712 19.2827 31.696 19.288 31.664 19.288C31.632 19.288 31.616 19.2827 31.616 19.272C31.6 18.856 31.5147 18.5653 31.36 18.4C31.2053 18.2293 30.9493 18.144 30.592 18.144C30.352 18.144 30.1813 18.1547 30.08 18.176C29.9787 18.1973 29.9093 18.2427 29.872 18.312C29.8347 18.3813 29.816 18.4987 29.816 18.664V22.352C29.816 22.5173 29.8347 22.6373 29.872 22.712C29.9093 22.7867 29.9813 22.8373 30.088 22.864C30.1947 22.8907 30.3627 22.904 30.592 22.904C30.608 22.904 30.616 22.92 30.616 22.952C30.616 22.984 30.608 23 30.592 23C30.416 23 30.2747 22.9973 30.168 22.992L29.544 22.984L28.944 22.992C28.8373 22.9973 28.6907 23 28.504 23C28.4933 23 28.488 22.984 28.488 22.952C28.488 22.92 28.4933 22.904 28.504 22.904C28.7333 22.904 28.9013 22.8907 29.008 22.864C29.1147 22.8373 29.1867 22.7867 29.224 22.712C29.2667 22.632 29.288 22.512 29.288 22.352V18.648C29.288 18.4827 29.2693 18.368 29.232 18.304C29.1947 18.2347 29.1253 18.192 29.024 18.176C28.9227 18.1547 28.752 18.144 28.512 18.144ZM33.6623 22.352C33.6623 22.512 33.6783 22.632 33.7103 22.712C33.7423 22.7867 33.8036 22.8373 33.8943 22.864C33.9903 22.8907 34.1396 22.904 34.3423 22.904C34.3583 22.904 34.3663 22.92 34.3663 22.952C34.3663 22.984 34.3583 23 34.3423 23C34.1823 23 34.0543 22.9973 33.9583 22.992L33.3903 22.984L32.8383 22.992C32.7423 22.9973 32.6116 23 32.4463 23C32.4303 23 32.4223 22.984 32.4223 22.952C32.4223 22.92 32.4303 22.904 32.4463 22.904C32.649 22.904 32.7956 22.8907 32.8863 22.864C32.9823 22.8373 33.0463 22.7867 33.0783 22.712C33.1156 22.632 33.1343 22.512 33.1343 22.352V18.648C33.1343 18.488 33.1156 18.3707 33.0783 18.296C33.0463 18.2213 32.9823 18.1707 32.8863 18.144C32.7956 18.112 32.649 18.096 32.4463 18.096C32.4303 18.096 32.4223 18.08 32.4223 18.048C32.4223 18.016 32.4303 18 32.4463 18L32.8383 18.008C33.0623 18.0187 33.2463 18.024 33.3903 18.024C33.5503 18.024 33.7423 18.0187 33.9663 18.008L34.3423 18C34.3583 18 34.3663 18.016 34.3663 18.048C34.3663 18.08 34.3583 18.096 34.3423 18.096C34.145 18.096 33.9983 18.112 33.9023 18.144C33.8116 18.176 33.7476 18.232 33.7103 18.312C33.6783 18.3867 33.6623 18.504 33.6623 18.664V22.352ZM38.0466 17.912C38.3026 17.912 38.5612 17.936 38.8226 17.984C39.0839 18.032 39.2919 18.1013 39.4466 18.192C39.4946 18.2133 39.5239 18.2373 39.5346 18.264C39.5506 18.2853 39.5612 18.3253 39.5666 18.384L39.6546 19.28C39.6546 19.296 39.6412 19.3067 39.6146 19.312C39.5879 19.312 39.5719 19.304 39.5666 19.288C39.4492 18.8773 39.2306 18.576 38.9106 18.384C38.5959 18.1867 38.2039 18.088 37.7346 18.088C37.3292 18.088 36.9746 18.1787 36.6706 18.36C36.3666 18.536 36.1319 18.7867 35.9666 19.112C35.8012 19.4373 35.7186 19.8133 35.7186 20.24C35.7186 20.736 35.8199 21.1947 36.0226 21.616C36.2306 22.0373 36.5079 22.3707 36.8546 22.616C37.2066 22.8613 37.5852 22.984 37.9906 22.984C38.3746 22.984 38.7079 22.88 38.9906 22.672C39.2732 22.4587 39.4892 22.1333 39.6386 21.696C39.6386 21.68 39.6492 21.672 39.6706 21.672C39.6866 21.672 39.6999 21.6747 39.7106 21.68C39.7266 21.6853 39.7346 21.6933 39.7346 21.704L39.6226 22.608C39.6119 22.672 39.5986 22.7147 39.5826 22.736C39.5719 22.752 39.5426 22.7707 39.4946 22.792C39.0146 22.9947 38.5079 23.096 37.9746 23.096C37.3346 23.096 36.7986 22.968 36.3666 22.712C35.9399 22.4507 35.6252 22.12 35.4226 21.72C35.2199 21.32 35.1186 20.8987 35.1186 20.456C35.1186 19.9653 35.2546 19.5253 35.5266 19.136C35.7986 18.7467 36.1586 18.4453 36.6066 18.232C37.0546 18.0187 37.5346 17.912 38.0466 17.912ZM41.2381 18.936C41.2381 19.144 41.2888 19.3253 41.3901 19.48C41.4915 19.6347 41.6141 19.7653 41.7581 19.872C41.9021 19.9733 42.1048 20.104 42.3661 20.264C42.6435 20.4293 42.8595 20.568 43.0141 20.68C43.1688 20.792 43.2995 20.936 43.4061 21.112C43.5181 21.2827 43.5741 21.488 43.5741 21.728C43.5741 21.984 43.5101 22.216 43.3821 22.424C43.2541 22.632 43.0648 22.7973 42.8141 22.92C42.5688 23.0373 42.2728 23.096 41.9261 23.096C41.5155 23.096 41.1395 23.0027 40.7981 22.816C40.7715 22.8 40.7528 22.7813 40.7421 22.76C40.7368 22.7387 40.7315 22.7067 40.7261 22.664L40.6221 21.576C40.6168 21.5547 40.6275 21.5413 40.6541 21.536C40.6861 21.5307 40.7048 21.5387 40.7101 21.56C40.7955 21.944 40.9528 22.2747 41.1821 22.552C41.4168 22.8293 41.7261 22.968 42.1101 22.968C42.3768 22.968 42.6008 22.896 42.7821 22.752C42.9688 22.6027 43.0621 22.368 43.0621 22.048C43.0621 21.808 43.0088 21.6 42.9021 21.424C42.7955 21.248 42.6648 21.104 42.5101 20.992C42.3608 20.8747 42.1555 20.7387 41.8941 20.584C41.6381 20.4293 41.4355 20.296 41.2861 20.184C41.1421 20.072 41.0195 19.9307 40.9181 19.76C40.8168 19.5893 40.7661 19.3893 40.7661 19.16C40.7661 18.8933 40.8355 18.6667 40.9741 18.48C41.1181 18.288 41.3021 18.1467 41.5261 18.056C41.7555 17.96 41.9981 17.912 42.2541 17.912C42.5688 17.912 42.8808 17.976 43.1901 18.104C43.2701 18.1307 43.3101 18.176 43.3101 18.24L43.3661 19.16C43.3661 19.1813 43.3528 19.192 43.3261 19.192C43.2995 19.192 43.2835 19.1813 43.2781 19.16C43.2355 18.8827 43.1208 18.6267 42.9341 18.392C42.7475 18.152 42.4781 18.032 42.1261 18.032C41.8275 18.032 41.6035 18.12 41.4541 18.296C41.3101 18.4667 41.2381 18.68 41.2381 18.936Z" fill="black"/>
</svg>
