<svg width="20" height="20" viewBox="0 0 20 20" fill="none" xmlns="http://www.w3.org/2000/svg">
<path fill-rule="evenodd" clip-rule="evenodd" d="M2 7H3.99978C4.00007 7.36654 4.20262 7.71934 4.55279 7.89442C5.04676 8.14141 5.64744 7.94119 5.89443 7.44721L6.11803 7H13.882L14.1056 7.44721C14.3526 7.94119 14.9532 8.14141 15.4472 7.89442C15.7974 7.71934 15.9999 7.36654 16.0002 7H18V9H2V7ZM15.118 5H18C19.1046 5 20 5.89543 20 7V9C20 9.84002 19.4821 10.5591 18.7482 10.8553C18.7516 10.9031 18.7534 10.9514 18.7534 11C18.7534 11.1459 18.7374 11.2914 18.7058 11.4339L17.1502 18.4339C16.9469 19.3489 16.1352 20 15.1978 20H4.80217C3.86477 20 3.05315 19.3489 2.8498 18.4339L1.29424 11.4339C1.25095 11.239 1.23767 11.0445 1.25134 10.8552C0.517673 10.5588 0 9.83985 0 9V7C0 5.89543 0.89543 5 2 5H4.88197L7.10557 0.552784C7.35256 0.0588057 7.95323 -0.141419 8.44721 0.105571C8.94119 0.35256 9.14142 0.953233 8.89443 1.44721L7.11803 5H12.882L11.1056 1.44721C10.8586 0.953233 11.0588 0.35256 11.5528 0.105571C12.0468 -0.141419 12.6474 0.0588057 12.8944 0.552784L15.118 5ZM3.24662 11H16.7534L15.1978 18H4.80217L3.24662 11Z" fill="#8DAF19"/>
</svg>
